<svg enable-background="new 0 0 128 128" viewBox="0 0 128 128" xmlns="http://www.w3.org/2000/svg" xmlns:xlink="http://www.w3.org/1999/xlink"><radialGradient id="a" cx="23.083" cy="93.333" gradientTransform="matrix(1 0 0 .9999 0 .007217)" gradientUnits="userSpaceOnUse" r="19.364"><stop offset="0" stop-color="#f57c00"/><stop offset=".4277" stop-color="#f47a00"/><stop offset=".6585" stop-color="#f17200"/><stop offset=".8418" stop-color="#ed6400"/><stop offset="1" stop-color="#e65100"/></radialGradient><radialGradient id="b" cx="15.255" cy="105.49" gradientTransform="matrix(1 0 0 .9999 2.2157 -16.194)" gradientUnits="userSpaceOnUse" r="15.699"><stop offset="0" stop-color="#d32f2f"/><stop offset=".3881" stop-color="#cf2d2d"/><stop offset=".7409" stop-color="#c42525"/><stop offset="1" stop-color="#b71c1c"/></radialGradient><radialGradient id="c" cx="90.5" cy="3.25" gradientTransform="matrix(1 0 0 .9999 0 .007217)" gradientUnits="userSpaceOnUse" r="69.968"><stop offset="0" stop-color="#2196f3"/><stop offset=".2752" stop-color="#1f8eeb"/><stop offset=".7013" stop-color="#1a79d5"/><stop offset=".7539" stop-color="#1976d2"/><stop offset="1" stop-color="#1976d2"/></radialGradient><radialGradient id="d" cx="55.25" cy="59.25" gradientTransform="matrix(1 0 0 .9999 0 .007217)" gradientUnits="userSpaceOnUse" r="39.869"><stop offset="0" stop-color="#bbdefb"/><stop offset="1" stop-color="#64b5f6"/></radialGradient><path d="m48.06 90.75s-5.46-8.56-9.81-6.94c-6.62 2.48-4.57 1.64-11.62 4.81-17.66 7.93-4.81 18.13-21.78 31.46-1.66 1.3-.72 3.98 1.38 3.91 9.42-.31 24.9-2.91 31.18-11.72 6.52-9.17 2.9-15.27 10.65-21.52z" fill="url(#a)"/><path d="m27.62 113.12c-6.68 2.49-7.46.31-7.3-8.39.06-3.45-2.03-3.84-4.65-3.02-1.23 5.22-1.67 11.19-10.81 18.37-1.66 1.3-.72 3.87 1.38 3.91 12.1.25 23.43-2.65 30.19-10.5-1-1.47-4.56-1.96-8.81-.37z" fill="url(#b)"/><path d="m39.4 86.6c.98 0 2.94 1.63 4.67 3.75-3.24 3.44-4.11 6.93-4.95 10.32-.75 3.03-1.53 6.16-4.15 9.85-.22.31-.5.64-.81 1l-.13.15c-.16.18-.32.35-.49.52l-.04.04c-6.62 7.02-17.13 8.67-25.06 8.77 7.53-6.57 8.83-12.67 9.87-17.57 1.1-5.18 1.83-8.61 9.55-12.07 1.08-.49 1.95-.88 2.67-1.2 3.34-1.51 3.34-1.51 6.83-2.81l1.94-.72c.02-.02.05-.03.1-.03m0-3c-.39 0-.78.06-1.15.21-6.62 2.48-4.57 1.64-11.63 4.81-17.1 7.68-5.59 17.49-20.25 30.2-.47.4-.96.81-1.48 1.22-.01.01-.03.02-.04.03l-.01.01c-.61.49-.87 1.15-.83 1.79.04 1.08.87 2.11 2.15 2.11h.08c.47.01.95.01 1.42.01 11.14 0 21.48-2.78 28.03-9.72.24-.25.48-.5.71-.76.01-.01.02-.02.03-.04.35-.4.69-.8.99-1.22 6.53-9.17 2.91-15.27 10.66-21.52-.02.02-4.57-7.13-8.68-7.13z" fill="#424242" opacity=".2"/><path d="m122.78 16.2c1.98-3.14 1.5-7.23-1.12-9.85s-6.72-3.1-9.85-1.12c-8.25 5.21-24.91 18.39-53.84 49.56l16.25 16.25c31.16-28.94 43.36-46.59 48.56-54.84z" fill="url(#c)"/><path d="m57.96 54.79c-7.65 8.24-15.38 18.41-24.58 29.4-.67.79-.62 1.97.11 2.7l8.72 8.72c.73.73 1.91.78 2.7.11 10.99-9.21 21.05-17.04 29.29-24.69z" fill="url(#d)"/><path d="m116.01 7.01c1.33 0 2.58.52 3.52 1.46 1.63 1.63 1.92 4.2.71 6.13-9.72 15.4-25.9 33.65-48.08 54.24-5.52 5.13-12.01 10.44-18.87 16.07-3.1 2.55-6.31 5.17-9.61 7.93l-7.43-7.43c3.03-3.63 5.89-7.16 8.66-10.57 5.32-6.55 10.34-12.74 15.23-18.01 30.16-32.49 46.31-44.69 53.25-49.07.8-.49 1.7-.75 2.62-.75m0-3c-1.45 0-2.91.4-4.21 1.22-8.25 5.21-24.91 18.39-53.84 49.56-7.65 8.24-15.38 18.41-24.58 29.4-.67.79-.62 1.97.11 2.7l8.72 8.72c.39.39.9.58 1.41.58.46 0 .92-.16 1.29-.47 10.99-9.21 21.05-17.04 29.29-24.69 31.17-28.93 43.36-46.58 48.57-54.83 1.98-3.14 1.5-7.23-1.12-9.85-1.53-1.54-3.57-2.34-5.64-2.34z" fill="#424242" opacity=".2"/></svg>